# Blender v2.81 (sub 16) OBJ File: ''
# www.blender.org
mtllib BirthdayCakeSlice.mtl
o Cube_Cube.001
v -0.070117 -0.576376 1.000000
v -0.070117 0.576376 1.000000
v -1.000000 -0.576376 -1.000000
v -1.000000 0.576376 -1.000000
v 0.070117 -0.576376 1.000000
v 0.070117 0.576376 1.000000
v 1.000000 -0.576376 -1.000000
v 1.000000 0.576376 -1.000000
vt 0.333333 0.517173
vt 0.000000 0.517173
vt 0.000000 0.000000
vt 0.333333 0.000000
vt 0.666667 0.986137
vt 0.333333 0.986137
vt 0.333333 0.517174
vt 0.666667 0.517174
vt 0.333333 0.000000
vt 0.666667 0.000000
vt 0.333333 0.531037
vt 0.000000 0.531037
vt 0.666667 0.468963
vt 0.666667 0.000000
vt 1.000000 0.218041
vt 1.000000 0.250923
vt 0.333333 0.531037
vt 0.333333 1.000000
vt 0.000000 0.781959
vt 0.000000 0.749077
vn -0.9068 0.0000 0.4216
vn 0.0000 0.0000 -1.0000
vn 0.9068 0.0000 0.4216
vn 0.0000 0.0000 1.0000
vn 0.0000 -1.0000 -0.0000
vn 0.0000 1.0000 -0.0000
usemtl None
s off
f 1/1/1 2/2/1 4/3/1 3/4/1
f 3/5/2 4/6/2 8/7/2 7/8/2
f 7/8/3 8/7/3 6/9/3 5/10/3
f 5/11/4 6/12/4 2/2/4 1/1/4
f 3/13/5 7/14/5 5/15/5 1/16/5
f 8/17/6 4/18/6 2/19/6 6/20/6
